<?xml version="1.0" standalone="no"?><!DOCTYPE svg PUBLIC "-//W3C//DTD SVG 1.1//EN" "http://www.w3.org/Graphics/SVG/1.1/DTD/svg11.dtd"><svg t="1521789744783" class="icon" style="" viewBox="0 0 1024 1024" version="1.1" xmlns="http://www.w3.org/2000/svg" p-id="4633" xmlns:xlink="http://www.w3.org/1999/xlink" width="200" height="200"><defs><style type="text/css"></style></defs><path d="M901.952 290.208l-219.36 131.904 0-148.96c0-28.256-22.912-51.168-51.168-51.168l-545.92 0c-28.288 0-51.168 22.912-51.168 51.168l0 477.696c0 28.256 22.88 51.168 51.168 51.168l545.92 0c28.256 0 51.168-22.912 51.168-51.168l0-151.808 224.192 134.752 82.912 0 0-443.552-87.744 0zM648.48 750.848c0 9.408-7.68 17.056-17.056 17.056l-545.92 0c-9.44 0-17.056-7.648-17.056-17.056l0-477.696c0-9.408 7.616-17.056 17.056-17.056l545.92 0c9.408 0 17.056 7.648 17.056 17.056l0 477.696zM955.552 699.648l-39.328 0-233.632-140.448 0-97.248 228.8-137.6 44.16 0 0 375.328z" p-id="4634" fill="#8a8a8a"></path></svg>