<?xml version="1.0" standalone="no"?><!DOCTYPE svg PUBLIC "-//W3C//DTD SVG 1.1//EN" "http://www.w3.org/Graphics/SVG/1.1/DTD/svg11.dtd"><svg t="1524811328263" class="icon" style="" viewBox="0 0 1024 1024" version="1.1" xmlns="http://www.w3.org/2000/svg" p-id="2100" xmlns:xlink="http://www.w3.org/1999/xlink" width="200" height="200"><defs><style type="text/css"></style></defs><path d="M556.8 512l454.4-454.4C1024 51.2 1024 38.4 1024 32s0-19.2-6.4-25.6c-12.8-12.8-32-12.8-44.8 0L512 467.2 57.6 6.4C44.8 0 19.2 0 6.4 6.4 0 12.8 0 25.6 0 32s0 19.2 6.4 25.6L467.2 512l-454.4 454.4C0 972.8 0 985.6 0 992s0 19.2 6.4 25.6S25.6 1024 32 1024s19.2 0 25.6-6.4L512 556.8l454.4 454.4c6.4 6.4 12.8 6.4 25.6 6.4s19.2 0 25.6-6.4 6.4-12.8 6.4-25.6 0-19.2-6.4-25.6L556.8 512z" p-id="2101" fill="#bfbfbf"></path></svg>