<?xml version="1.0" standalone="no"?><!DOCTYPE svg PUBLIC "-//W3C//DTD SVG 1.1//EN" "http://www.w3.org/Graphics/SVG/1.1/DTD/svg11.dtd"><svg t="1524810714421" class="icon" style="" viewBox="0 0 1024 1024" version="1.1" xmlns="http://www.w3.org/2000/svg" p-id="1117" xmlns:xlink="http://www.w3.org/1999/xlink" width="200" height="200"><defs><style type="text/css"></style></defs><path d="M917.7 378.2c0-102.7-178.5-198.8-405.6-198.8s-405.6 96.1-405.6 198.8S285 576.9 512.1 576.9s405.6-96 405.6-198.7zM751.9 713.7c-69.3 23.7-151.6 37.4-239.7 37.4s-170.4-13.7-239.7-37.4-125.7-57.3-162.3-97.2c-2.4 8.4-3.6 16.8-3.6 25.1 0 102.7 178.5 198.8 405.6 198.8s405.6-96.1 405.6-198.8c0-8.4-1.2-16.8-3.6-25.1-36.6 39.9-93 73.6-162.3 97.2zM110.1 484.8c-2.4 8.4-3.6 16.8-3.6 25.1 0 102.7 178.5 198.8 405.6 198.8s405.6-96.1 405.6-198.8c0-8.4-1.2-16.8-3.6-25.1-73.1 79.8-225.7 134.6-402 134.6s-328.9-54.9-402-134.6zM81 444.1c-11-20.9-16.9-43-16.9-65.9C64.1 245 264.7 137 512.1 137s448 108 448 241.2c0 22.8-5.9 44.9-16.9 65.9 11 20.9 16.9 43 16.9 65.9 0 22.8-5.9 44.9-16.9 65.9 11 20.9 16.9 43 16.9 65.9 0 133.2-200.6 241.2-448 241.2s-448-108-448-241.2c0-22.8 5.9-44.9 16.9-65.9-11-20.9-16.9-43-16.9-65.9 0-22.9 5.9-45 16.9-65.9z m879.2 197.6c0 133.2-200.6 241.2-448 241.2s-448-108-448-241.2c0-28.7 9.3-56.3 26.5-81.9l35.3 23.6c-12.9 19.3-19.3 38.7-19.3 58.2 0 102.7 178.5 198.8 405.6 198.8s405.6-96.1 405.6-198.8c0-18.9-6-37.8-18.2-56.5l35.6-23.1c16.1 24.9 24.9 51.8 24.9 79.7z" fill="#bfbfbf" p-id="1118"></path></svg>